<?xml version="1.0" standalone="no"?>
<!DOCTYPE svg PUBLIC "-//W3C//DTD SVG 20010904//EN"
 "http://www.w3.org/TR/2001/REC-SVG-20010904/DTD/svg10.dtd">
<svg version="1.0" xmlns="http://www.w3.org/2000/svg"
 width="1024.000000pt" height="1024.000000pt" viewBox="0 0 1024.000000 1024.000000"
 preserveAspectRatio="xMidYMid meet">

<g transform="translate(0.000000,1024.000000) scale(0.100000,-0.100000)"
fill="#000000" stroke="none">
<path d="M8490 9059 c-142 -58 -757 -214 -1178 -299 -307 -63 -445 -119 -651
-265 -213 -151 -552 -341 -1031 -579 -297 -148 -428 -205 -675 -296 -93 -35
-195 -75 -225 -90 -95 -48 -175 -115 -218 -183 -52 -82 -71 -141 -83 -252 -29
-271 -26 -254 -66 -304 -21 -25 -126 -136 -233 -246 -108 -110 -211 -221 -228
-247 -49 -71 -88 -172 -132 -336 -49 -183 -65 -234 -128 -399 -46 -119 -68
-195 -117 -412 -9 -40 -39 -155 -66 -254 -27 -100 -49 -193 -49 -207 0 -76
121 -116 255 -85 88 20 156 57 222 122 l53 51 1 -86 c1 -48 3 -492 4 -987 l2
-900 23 -50 c50 -105 198 -215 372 -277 198 -70 376 -104 626 -120 390 -25
767 35 1029 162 99 48 135 72 186 122 35 35 74 86 87 113 l24 50 0 971 0 972
46 -40 c129 -115 343 -146 387 -56 7 13 16 131 22 278 10 235 14 271 50 450
22 107 47 240 56 295 51 329 100 464 245 680 37 55 85 133 108 173 95 168 165
400 183 611 14 160 38 211 154 327 88 89 181 149 312 200 104 41 174 56 419
94 331 50 354 55 340 79 -13 21 -84 31 -226 31 -380 -1 -693 -92 -907 -267
l-56 -46 7 42 c22 139 198 349 360 432 58 30 59 31 23 26 -92 -14 -252 -113
-351 -217 -136 -144 -181 -281 -206 -618 -24 -326 -84 -502 -264 -776 -96
-145 -176 -303 -210 -416 -22 -72 -89 -441 -130 -715 -9 -63 -15 -79 -26 -75
-43 13 -127 3 -163 -19 -63 -39 -90 -105 -96 -236 l-6 -110 -37 65 c-52 92
-78 193 -85 331 -7 134 3 210 55 441 34 152 36 174 36 328 0 133 -5 185 -23
270 -48 225 -152 375 -315 456 -74 36 -206 70 -206 53 0 -5 7 -9 16 -9 40 0
164 -72 221 -128 54 -54 121 -157 110 -169 -3 -3 -26 9 -52 27 -71 49 -260
136 -360 166 -121 36 -294 38 -432 5 -51 -13 -95 -26 -97 -29 -2 -4 41 -8 96
-8 55 -1 104 -6 109 -11 13 -13 -88 -79 -192 -127 -41 -19 -134 -53 -205 -74
-72 -22 -141 -45 -155 -52 -13 -7 -71 -59 -129 -115 -114 -110 -221 -199 -316
-263 -77 -52 -115 -95 -142 -163 -11 -30 -39 -101 -61 -159 -23 -58 -70 -157
-106 -220 -36 -63 -70 -133 -76 -155 -74 -287 -117 -390 -204 -484 -46 -49
-131 -108 -141 -98 -2 2 9 34 23 72 36 100 43 237 14 319 -12 33 -21 75 -21
95 0 52 31 158 106 359 36 97 83 246 105 331 60 244 86 287 288 495 259 266
433 465 532 610 107 157 220 255 377 326 34 16 62 31 62 33 0 9 -117 -14 -189
-38 -148 -49 -230 -111 -352 -268 -76 -97 -78 -97 -58 23 14 89 56 176 113
233 51 50 159 108 282 151 314 110 445 168 919 406 450 227 524 270 885 514
199 135 251 156 645 256 513 131 796 225 1025 340 43 22 81 44 85 50 7 12 7
12 -25 -1z m-2820 -2474 c6 -4 -10 -29 -35 -58 -26 -28 -53 -63 -61 -79 -13
-25 -20 -28 -63 -28 l-49 0 -7 46 c-8 53 -1 64 65 106 39 25 52 29 93 24 26
-3 52 -8 57 -11z m283 -118 l39 -22 -84 -16 c-79 -16 -179 -58 -241 -101 l-27
-19 10 25 c28 74 82 145 134 177 28 17 31 17 80 -3 28 -11 68 -29 89 -41z
m-603 -69 c0 -38 -9 -71 -30 -115 l-29 -63 76 41 c74 39 79 40 165 38 48 -1
88 -3 88 -6 0 -2 -17 -25 -37 -52 -21 -27 -42 -56 -48 -65 -9 -15 -25 -16
-151 -10 l-141 7 -12 81 c-7 45 -14 93 -17 108 -6 24 -1 29 52 57 81 41 84 41
84 -21z m-246 -94 c4 -15 7 -58 7 -97 0 -64 -3 -75 -32 -116 -71 -99 -120
-174 -115 -178 2 -2 24 11 48 29 24 18 82 51 128 73 80 38 90 40 175 39 50 0
107 -6 128 -13 35 -12 43 -21 85 -110 l47 -96 6 87 c8 112 46 193 128 272 90
85 146 109 269 114 56 2 102 0 102 -4 -1 -5 -18 -21 -40 -36 -73 -50 -133
-160 -147 -267 -10 -82 -130 -254 -202 -291 -34 -17 -67 -19 -422 -21 -416 -2
-428 -1 -487 54 -49 46 -92 170 -92 271 0 47 2 51 80 133 110 116 134 134 209
160 90 31 117 30 125 -3z m1015 -71 c-7 -10 -32 -38 -54 -63 -22 -25 -53 -61
-68 -80 l-28 -35 28 53 c15 30 49 74 76 98 51 46 69 56 46 27z m81 -210 c0
-104 -12 -184 -56 -378 -24 -105 -27 -142 -28 -295 -1 -161 4 -206 31 -305 6
-19 5 -19 -23 0 -232 153 -518 229 -919 241 -425 14 -833 -73 -1063 -226 -46
-31 -71 -43 -67 -32 4 9 22 75 41 147 29 108 48 153 110 267 41 75 92 181 114
237 64 165 92 205 188 270 36 25 35 27 53 -64 29 -149 90 -244 186 -291 l58
-29 430 0 430 0 52 24 c67 30 130 97 223 236 73 109 218 294 233 294 4 1 7
-43 7 -96z m409 -880 c14 -15 16 -46 13 -217 l-3 -198 -41 6 c-46 8 -92 37
-110 69 -16 31 -23 223 -9 273 6 23 21 54 33 69 18 24 26 27 61 22 22 -3 47
-14 56 -24z m-2951 -150 c-3 -69 -12 -115 -27 -156 -22 -56 -64 -117 -74 -107
-8 8 86 360 96 360 5 0 7 -41 5 -97z m535 -392 c129 -87 360 -161 617 -197 75
-11 188 -17 325 -17 186 -1 228 2 370 27 287 50 501 135 623 249 l32 31 0 -28
c0 -74 -100 -181 -232 -247 -438 -220 -1148 -224 -1593 -9 -153 74 -255 177
-255 257 l0 27 33 -31 c17 -16 54 -45 80 -62z m112 -737 c134 -64 239 -95 444
-131 140 -24 179 -27 386 -26 246 0 341 11 530 59 192 48 329 110 430 194 68
55 79 49 49 -29 -52 -136 -285 -261 -598 -321 -306 -58 -721 -43 -996 37 -114
33 -240 85 -302 125 -95 60 -167 153 -168 216 0 21 5 19 58 -24 31 -26 107
-71 167 -100z m1835 -609 c-72 -148 -365 -286 -715 -336 -136 -20 -474 -17
-615 4 -294 46 -515 129 -636 239 -56 52 -98 123 -92 160 3 22 4 21 38 -8 191
-166 502 -259 930 -280 404 -19 863 96 1051 265 52 47 54 48 57 24 2 -13 -6
-44 -18 -68z"/>
</g>
</svg>
