<?xml version="1.0" standalone="no"?>
<!DOCTYPE svg PUBLIC "-//W3C//DTD SVG 20010904//EN"
 "http://www.w3.org/TR/2001/REC-SVG-20010904/DTD/svg10.dtd">
<svg version="1.0" xmlns="http://www.w3.org/2000/svg"
 width="1408.000000pt" height="768.000000pt" viewBox="0 0 1408.000000 768.000000"
 preserveAspectRatio="xMidYMid meet">

<g transform="translate(0.000000,768.000000) scale(0.100000,-0.100000)"
fill="#000000" stroke="none">
<path d="M9219 6965 c-7 -6 -395 -109 -484 -128 -265 -56 -416 -91 -455 -104
-57 -19 -143 -63 -195 -98 -245 -168 -812 -458 -1125 -575 -187 -70 -236 -96
-281 -148 -51 -58 -70 -113 -81 -236 -12 -132 -2 -116 -194 -316 -80 -84 -149
-165 -162 -191 -12 -26 -35 -98 -52 -160 -16 -63 -48 -166 -71 -229 -22 -63
-49 -158 -59 -210 -10 -52 -32 -147 -49 -210 -37 -136 -37 -134 -11 -160 15
-15 33 -20 71 -20 83 0 135 18 189 67 l50 45 0 -603 0 -602 25 -42 c73 -125
314 -208 645 -222 375 -15 704 83 771 231 17 38 19 79 19 630 l0 590 33 -32
c17 -17 49 -38 69 -46 50 -21 141 -21 159 0 9 11 17 73 25 178 7 94 21 195 33
244 12 45 31 128 42 185 42 215 85 323 173 442 114 152 176 294 201 461 9 60
22 123 29 139 23 52 92 130 147 167 112 74 208 102 477 138 139 19 175 30 158
47 -13 13 -202 15 -294 3 -200 -26 -311 -64 -422 -146 -35 -25 -60 -38 -60
-31 0 8 14 43 32 78 37 75 123 166 193 203 48 25 48 26 15 20 -117 -22 -260
-157 -305 -289 -9 -27 -25 -120 -36 -205 -32 -267 -62 -342 -212 -552 -97
-135 -132 -236 -192 -548 -35 -180 -28 -166 -74 -162 -84 8 -131 -49 -134
-163 -1 -36 -5 -65 -8 -65 -13 0 -50 81 -64 141 -23 98 -18 175 20 350 52 238
48 371 -17 511 -49 107 -143 184 -248 202 -30 5 -26 2 25 -23 33 -17 74 -45
90 -64 37 -42 83 -123 64 -111 -8 4 -32 20 -54 35 -46 31 -135 70 -215 93 -69
21 -228 22 -290 2 l-45 -14 60 -1 c88 -2 95 -12 36 -49 -69 -42 -130 -68 -230
-97 -46 -14 -94 -34 -105 -45 -12 -10 -49 -46 -83 -79 -35 -33 -102 -88 -149
-122 -71 -51 -91 -71 -110 -113 -13 -28 -24 -57 -24 -64 0 -19 -53 -129 -93
-195 -20 -34 -39 -81 -45 -115 -22 -126 -85 -244 -154 -289 -21 -14 -41 -24
-43 -21 -3 3 2 21 10 41 20 49 19 160 -1 203 -21 45 -8 116 47 258 22 55 53
155 70 220 16 66 39 136 52 157 12 20 79 97 148 170 170 181 266 292 314 364
61 92 114 139 206 184 94 46 89 51 -21 20 -106 -29 -150 -58 -227 -149 -36
-44 -67 -80 -68 -80 -1 0 2 26 6 58 20 142 68 187 278 262 176 63 285 112 586
262 306 153 334 169 539 301 160 104 188 115 506 196 129 33 300 82 380 109
158 53 308 120 274 121 -11 1 -23 -1 -25 -4z m-1830 -1564 c10 -6 10 -10 1
-16 -6 -4 -25 -26 -41 -48 -22 -31 -38 -42 -58 -43 -24 -1 -30 4 -39 31 -9 32
-8 35 27 59 36 26 84 33 110 17z m174 -68 c45 -24 49 -28 27 -30 -14 -2 -44
-6 -66 -9 -23 -2 -67 -20 -98 -39 -31 -18 -56 -30 -56 -26 0 12 62 105 79 118
25 19 57 15 114 -14z m-373 -56 c0 -11 -7 -34 -16 -53 -21 -45 -13 -51 29 -25
25 15 51 21 96 21 33 0 61 -3 61 -7 -1 -5 -16 -25 -35 -46 l-34 -39 -89 7 -90
7 -7 62 c-3 33 -7 63 -7 66 -1 3 16 15 38 27 40 23 54 18 54 -20z m-162 -98
c3 -63 2 -66 -42 -124 -53 -70 -57 -84 -17 -56 62 45 134 71 191 70 90 -2 102
-8 135 -74 l30 -60 6 61 c9 92 57 158 148 205 51 26 156 38 174 20 8 -8 8 -11
0 -11 -40 0 -113 -103 -113 -159 0 -26 -31 -83 -86 -160 -9 -13 -35 -31 -58
-41 -36 -16 -69 -18 -286 -16 -260 2 -274 5 -304 51 -20 31 -49 159 -41 184 3
9 36 47 73 84 54 54 79 71 118 82 27 7 54 12 59 11 6 -2 11 -32 13 -67z m607
-54 c-52 -61 -70 -66 -36 -11 21 33 72 79 80 71 2 -2 -18 -29 -44 -60z m92
-92 c-3 -49 -18 -135 -33 -193 -23 -86 -27 -126 -27 -225 0 -67 5 -132 11
-147 11 -26 1 -40 -13 -19 -21 35 -184 98 -331 127 -123 25 -440 25 -571 1
-160 -30 -268 -69 -340 -124 -21 -15 -33 -19 -33 -11 1 44 54 194 89 253 23
39 57 112 77 162 29 74 44 99 74 123 21 16 42 30 47 30 5 0 17 -30 27 -67 22
-85 47 -126 94 -155 36 -23 42 -23 322 -23 284 0 285 0 328 25 29 16 60 49 97
104 51 74 174 226 184 226 2 0 1 -39 -2 -87z m249 -525 c7 -11 6 -249 -1 -257
-9 -9 -59 12 -81 34 -21 21 -24 33 -24 94 0 71 12 120 33 133 18 12 65 9 73
-4z m-1837 -89 c2 -56 -47 -175 -64 -157 -7 7 5 65 37 183 9 34 12 37 19 20 4
-11 8 -32 8 -46z m313 -229 c64 -49 215 -100 368 -126 127 -21 399 -15 523 11
109 22 220 67 289 115 l58 41 0 -27 c0 -65 -134 -148 -320 -197 -110 -29 -124
-31 -315 -31 -166 0 -216 4 -295 21 -154 33 -254 77 -317 137 -32 32 -53 61
-53 74 0 12 2 22 5 22 2 0 28 -18 57 -40z m1238 -390 c0 -69 -123 -153 -290
-199 -308 -84 -756 -35 -943 103 -34 25 -70 80 -65 101 2 13 10 11 38 -11 44
-34 159 -87 230 -107 160 -46 401 -61 593 -37 165 20 340 85 405 150 15 15 28
28 30 29 1 0 2 -12 2 -29z m-1181 -464 c49 -25 186 -65 271 -80 335 -59 722 1
875 135 l35 31 0 -25 c0 -58 -121 -151 -250 -191 -276 -88 -681 -66 -906 47
-79 40 -144 104 -144 142 l0 25 46 -35 c26 -20 58 -42 73 -49z"/>
<path d="M5530 2504 c-84 -22 -157 -71 -206 -137 -57 -77 -69 -115 -69 -222 0
-78 4 -97 28 -147 55 -112 148 -177 283 -198 131 -20 257 22 344 116 67 73 85
122 85 239 -1 92 -3 105 -32 160 -53 103 -147 173 -262 195 -70 13 -104 12
-171 -6z m191 -171 c88 -47 125 -171 80 -268 -46 -99 -158 -141 -256 -96 -124
56 -153 219 -58 331 55 66 150 79 234 33z"/>
<path d="M8997 2504 c-77 -18 -111 -37 -173 -96 -76 -72 -108 -148 -108 -258
0 -73 4 -94 29 -144 72 -151 238 -235 407 -207 134 22 233 95 286 210 22 47
26 70 26 146 0 77 -4 99 -28 152 -48 105 -146 180 -265 203 -68 13 -102 12
-174 -6z m209 -180 c47 -38 76 -92 82 -155 6 -67 -34 -149 -91 -187 -54 -36
-159 -39 -203 -6 -61 45 -86 88 -91 157 -7 78 7 123 50 167 46 47 82 61 154
57 52 -2 69 -8 99 -33z"/>
<path d="M4646 2489 c-19 -15 -26 -30 -26 -55 0 -53 28 -74 103 -76 34 -1 73
-2 87 -2 28 -1 25 41 28 -343 2 -158 4 -175 22 -193 25 -25 89 -27 119 -2 21
16 22 25 26 277 l4 260 101 5 c112 6 120 10 120 73 0 24 -7 44 -20 57 -19 19
-33 20 -279 20 -246 0 -260 -1 -285 -21z"/>
<path d="M6150 2503 c-38 -14 -40 -28 -40 -345 l0 -309 25 -24 c30 -31 83 -33
116 -6 20 16 24 30 27 92 4 69 6 77 40 112 20 20 40 37 44 37 4 0 46 -48 93
-107 47 -60 100 -118 118 -130 42 -31 91 -30 122 2 44 43 40 51 -101 227 -57
72 -104 134 -104 139 0 5 45 56 100 114 81 85 100 111 100 135 0 41 -31 70
-76 70 -40 0 -25 13 -231 -202 l-103 -107 0 130 c0 125 -1 131 -25 154 -23 24
-67 32 -105 18z"/>
<path d="M6845 2485 l-25 -24 0 -304 c0 -234 3 -307 13 -321 20 -27 71 -32
300 -32 207 1 209 1 228 25 24 30 24 72 0 102 -16 20 -28 23 -92 24 -41 1
-118 2 -171 3 l-98 2 0 64 0 65 146 3 c131 3 147 5 160 22 24 33 18 82 -13
106 -26 21 -36 22 -160 18 l-133 -4 0 63 0 63 164 0 c192 0 199 3 194 78 -4
69 -13 72 -271 72 l-218 0 -24 -25z"/>
<path d="M7445 2498 c-29 -16 -35 -28 -35 -69 0 -59 24 -72 131 -73 l91 -1 3
-252 c2 -150 8 -260 14 -272 13 -23 59 -35 101 -26 58 13 60 24 60 302 l0 253
100 0 c88 0 100 2 110 19 17 33 12 89 -10 111 -19 19 -33 20 -282 20 -177 -1
-270 -4 -283 -12z"/>
<path d="M8125 2485 l-25 -24 0 -304 c0 -283 1 -306 19 -328 18 -23 19 -23
253 -22 156 0 242 5 256 12 39 21 42 100 4 119 -18 10 -172 22 -284 22 l-68 0
0 65 0 65 133 0 c159 0 181 8 185 65 5 73 -4 77 -171 76 l-147 -1 0 65 0 65
165 0 c152 0 167 2 185 20 30 30 27 83 -6 109 -25 20 -39 21 -251 21 l-224 0
-24 -25z"/>
<path d="M4790 1536 c0 -89 1 -96 20 -96 17 0 20 7 20 52 l0 51 30 -41 c17
-23 32 -42 34 -42 3 0 15 19 28 41 l23 42 5 -49 c4 -36 10 -50 23 -52 15 -3
17 7 17 93 0 86 -2 96 -17 93 -10 -2 -31 -27 -47 -56 -17 -28 -33 -52 -36 -52
-3 0 -19 24 -36 52 -16 29 -37 54 -47 56 -15 3 -17 -7 -17 -92z"/>
<path d="M5086 1622 c-3 -6 -21 -46 -40 -91 -24 -55 -31 -83 -24 -87 6 -4 19
3 29 14 24 30 95 31 104 2 6 -18 46 -30 44 -12 0 4 -17 45 -37 92 -35 79 -60
107 -76 82z m44 -94 c0 -4 -12 -8 -26 -8 -14 0 -23 3 -21 8 2 4 7 16 11 27 7
20 8 20 22 1 8 -11 14 -23 14 -28z"/>
<path d="M5224 1616 c-3 -7 -4 -48 -2 -92 2 -65 6 -79 20 -82 14 -3 17 6 20
55 l3 58 43 -58 c24 -32 49 -56 55 -54 8 2 12 33 12 93 0 72 -3 89 -15 89 -11
0 -14 -10 -12 -41 2 -23 -1 -45 -6 -48 -6 -3 -27 14 -47 38 -40 49 -63 63 -71
42z"/>
<path d="M5425 1618 c-2 -7 -3 -49 -2 -93 l2 -80 65 0 c51 0 65 3 65 15 0 11
-13 16 -48 18 -39 3 -48 6 -45 20 2 12 15 18 46 20 28 2 42 8 42 17 0 9 -14
15 -42 17 -31 2 -44 8 -46 21 -3 14 4 17 47 17 37 0 51 4 51 14 0 24 -127 37
-135 14z"/>
<path d="M5633 1622 c-29 -2 -43 -8 -43 -18 0 -8 10 -14 25 -14 24 0 25 -3 25
-56 l0 -55 -32 3 c-24 2 -33 -1 -33 -12 0 -22 49 -36 78 -23 21 10 25 19 30
90 3 43 3 80 -1 83 -4 3 -26 4 -49 2z"/>
<path d="M5771 1607 c-5 -13 -23 -54 -40 -91 -17 -38 -31 -70 -31 -72 0 -2 9
-4 21 -4 12 0 23 8 26 20 4 16 14 20 47 20 30 0 44 -5 54 -20 11 -17 42 -29
42 -15 0 3 -16 45 -36 95 -28 70 -40 90 -55 90 -11 0 -23 -10 -28 -23z m44
-69 c6 -23 4 -28 -12 -28 -28 0 -32 8 -20 40 12 33 22 29 32 -12z"/>
<path d="M5919 1608 c-3 -13 -3 -53 -1 -90 l4 -68 55 0 c70 0 90 11 104 59 22
73 -29 121 -127 121 -25 0 -32 -5 -35 -22z m121 -37 c24 -45 -2 -91 -52 -91
-27 0 -28 1 -28 55 l0 55 35 0 c24 0 37 -6 45 -19z"/>
<path d="M6159 1615 c-14 -8 -32 -28 -39 -44 -38 -93 71 -172 147 -107 23 20
28 32 28 71 0 39 -5 51 -28 71 -32 27 -69 30 -108 9z m91 -44 c24 -46 1 -93
-45 -93 -49 0 -72 56 -38 94 22 24 69 24 83 -1z"/>
<path d="M6333 1614 c-2 -6 -3 -46 -1 -90 3 -66 6 -79 21 -82 13 -3 17 3 17
23 0 40 28 43 57 6 13 -17 31 -31 39 -31 18 0 18 5 -3 36 -16 25 -16 27 0 36
37 20 13 106 -31 109 -67 5 -95 3 -99 -7z m105 -51 c2 -14 -4 -26 -18 -33 -31
-17 -50 -5 -50 30 0 29 2 31 33 28 24 -2 33 -8 35 -25z"/>
<path d="M6590 1535 l0 -97 62 4 c51 4 65 9 85 32 30 35 30 86 0 121 -18 22
-34 27 -85 32 l-62 6 0 -98z m106 47 c23 -15 33 -46 22 -67 -15 -27 -28 -35
-60 -35 -27 0 -28 2 -28 55 0 53 1 55 28 55 15 0 32 -4 38 -8z"/>
<path d="M6795 1543 c-4 -51 -3 -89 3 -95 5 -5 36 -8 68 -6 44 2 59 7 59 18 0
11 -13 16 -47 18 -40 3 -48 6 -48 23 0 16 7 19 45 19 33 0 45 4 45 14 0 10
-14 16 -42 18 -31 2 -44 8 -46 21 -3 14 4 17 42 17 40 0 46 3 46 20 0 19 -6
20 -59 19 l-59 -2 -7 -84z"/>
<path d="M7034 1617 c-3 -8 -4 -49 -2 -93 l3 -79 63 0 c51 0 67 4 78 20 18 24
18 40 0 57 -10 10 -11 20 -4 31 13 25 0 57 -29 68 -37 14 -103 11 -109 -4z
m104 -44 c-2 -12 -14 -19 -36 -21 -27 -3 -32 0 -32 17 0 17 6 21 36 21 28 0
35 -3 32 -17z m5 -67 c8 -20 -2 -26 -40 -26 -26 0 -33 4 -33 20 0 16 7 20 34
20 20 0 36 -6 39 -14z"/>
<path d="M7425 1605 c-14 -13 -25 -28 -25 -33 0 -19 27 -42 64 -54 22 -7 41
-18 43 -25 6 -18 -41 -27 -67 -13 -17 9 -25 9 -34 0 -15 -15 18 -40 55 -40 96
0 117 79 30 110 -45 16 -53 29 -27 45 11 7 22 6 35 -2 15 -10 22 -9 31 2 9 11
7 16 -9 24 -33 18 -70 13 -96 -14z"/>
<path d="M7582 1538 l3 -93 65 0 c51 0 65 3 65 15 0 11 -13 16 -47 18 -40 3
-48 6 -48 23 0 16 7 19 40 19 33 0 40 3 40 20 0 17 -7 20 -40 20 -29 0 -40 4
-40 15 0 11 12 15 45 15 38 0 45 3 45 20 0 18 -7 20 -65 20 l-66 0 3 -92z"/>
<path d="M7762 1614 c-14 -10 -22 -25 -22 -45 0 -31 14 -41 73 -53 15 -4 27
-13 27 -21 0 -19 -43 -29 -68 -16 -28 15 -32 14 -32 -8 0 -36 87 -44 120 -11
39 39 17 78 -52 94 -29 7 -38 31 -15 39 6 2 27 2 45 -1 39 -6 44 14 6 28 -36
14 -56 12 -82 -6z"/>
<path d="M7980 1535 l0 -97 62 4 c51 4 65 9 85 32 32 37 31 95 -1 125 -18 17
-41 24 -85 28 l-61 6 0 -98z m118 43 c7 -7 12 -26 12 -43 0 -40 -16 -55 -57
-55 l-33 0 0 55 0 55 33 0 c18 0 38 -5 45 -12z"/>
<path d="M8184 1615 c-3 -7 -4 -48 -2 -91 l3 -79 68 -3 c62 -3 67 -1 67 18 0
17 -6 20 -50 20 -43 0 -50 3 -50 19 0 16 8 20 43 23 51 4 52 21 0 28 -26 3
-39 11 -41 23 -3 14 4 17 48 17 44 0 51 3 48 18 -3 14 -15 17 -66 18 -42 1
-65 -3 -68 -11z"/>
<path d="M8673 1610 c-3 -12 -21 -53 -39 -91 -19 -39 -34 -73 -34 -75 0 -14
41 -1 50 16 8 15 21 20 50 20 29 0 42 -5 50 -20 6 -11 18 -20 26 -20 20 0 14
27 -28 121 -23 51 -36 69 -50 69 -12 0 -22 -9 -25 -20z m42 -72 c6 -25 5 -28
-19 -28 -30 0 -29 -2 -15 39 12 35 24 31 34 -11z"/>
<path d="M8790 1610 c0 -15 6 -20 25 -20 24 0 25 -2 25 -68 0 -73 4 -84 26
-75 10 4 14 24 14 74 l0 69 31 0 c24 0 30 4 27 18 -3 14 -16 18 -76 20 -67 3
-72 1 -72 -18z"/>
<path d="M9003 1620 c-30 -12 -56 -55 -56 -92 0 -22 9 -39 31 -60 51 -45 115
-33 147 26 42 77 -38 160 -122 126z m85 -63 c12 -24 11 -31 -2 -53 -18 -26
-63 -33 -84 -12 -16 16 -15 71 0 86 22 22 71 10 86 -21z"/>
<path d="M9182 1614 c-17 -12 -22 -24 -20 -47 3 -28 8 -33 51 -45 48 -14 62
-36 28 -47 -10 -3 -30 -1 -45 5 -36 13 -36 13 -36 -9 0 -32 79 -42 118 -15 45
31 20 82 -50 99 -31 8 -38 31 -10 37 9 3 27 1 40 -4 17 -6 24 -4 29 8 13 34
-64 47 -105 18z"/>
<path d="M7240 1544 c-19 -43 -36 -81 -38 -86 -7 -16 37 -8 47 9 14 25 81 21
100 -6 7 -12 20 -21 27 -21 15 0 19 22 7 34 -4 4 -20 38 -34 74 -22 54 -31 68
-51 70 -21 3 -28 -6 -58 -74z m80 -21 c0 -13 -32 -18 -43 -7 -3 3 -1 19 5 36
l11 31 13 -24 c7 -13 13 -30 14 -36z"/>
<path d="M8422 1533 l3 -88 59 0 c53 1 61 3 88 34 24 27 29 39 24 65 -10 52
-47 76 -117 76 l-60 0 3 -87z m116 45 c7 -7 12 -26 12 -43 0 -40 -16 -55 -57
-55 l-33 0 0 55 0 55 33 0 c18 0 38 -5 45 -12z"/>
</g>
</svg>
